<mxfile host="app.diagrams.net" modified="2023-12-14T04:30:40.070Z" agent="Mozilla/5.0 (X11; Linux x86_64) AppleWebKit/537.36 (KHTML, like Gecko) Chrome/120.0.0.0 Safari/537.36" version="22.1.8" etag="Rd2PpTPPeFYv2Nvu9FvH" type="github">
  <diagram name="Page-1" id="c7SNStqHRDmyVNr9u8gP">
    <mxGraphModel>
      <root>
        <mxCell id="0" />
        <mxCell id="1" parent="0" />
      </root>
    </mxGraphModel>
  </diagram>
</mxfile>
